<svg xmlns="http://www.w3.org/2000/svg" viewBox="0 0 600 360" width="600" height="360" role="img" aria-label="Route map placeholder">
  <rect width="600" height="360" fill="#eef0ec"/>
  <g stroke="#d9dcd6" stroke-width="1">
    <path d="M0 60 H600 M0 120 H600 M0 180 H600 M0 240 H600 M0 300 H600"/>
    <path d="M100 0 V360 M200 0 V360 M300 0 V360 M400 0 V360 M500 0 V360"/>
  </g>
  <path d="M120 300 C 60 220, 90 120, 200 90 S 380 70, 470 130 S 560 260, 440 300 S 220 320, 120 300 Z"
        fill="none" stroke="#c8623f" stroke-width="5" stroke-linecap="round" stroke-linejoin="round"/>
  <circle cx="120" cy="300" r="8" fill="#1f1d1a"/>
  <circle cx="120" cy="300" r="3.5" fill="#fff"/>
</svg>
